<svg viewBox="0 0 24 24" xmlns="http://www.w3.org/2000/svg" xmlns:xlink="http://www.w3.org/1999/xlink"><style>:root>svg{display:none}:root>svg:target{display:block}</style><svg viewBox="0 0 24 24" id="ask" xmlns="http://www.w3.org/2000/svg"><path fill="none" d="M0 0h24v24H0z"/><path d="M5.763 17H20V5H4v13.385L5.763 17zm.692 2L2 22.5V4a1 1 0 011-1h18a1 1 0 011 1v14a1 1 0 01-1 1H6.455zM11 14h2v2h-2v-2zM8.567 8.813A3.501 3.501 0 1112 13h-1v-2h1a1.5 1.5 0 10-1.471-1.794l-1.962-.393z"/></svg><svg viewBox="0 0 24 24" id="button-answer" xmlns="http://www.w3.org/2000/svg"><path d="M5.455 15L1 18.5V3a1 1 0 011-1h15a1 1 0 011 1v12H5.455zm-.692-2H16V4H3v10.385L4.763 13zM8 17h10.237L20 18.385V8h1a1 1 0 011 1v13.5L17.545 19H9a1 1 0 01-1-1v-1z" fill="#fff"/></svg><svg viewBox="0 0 24 24" id="button-close" xmlns="http://www.w3.org/2000/svg"><path d="M6 8V7a6 6 0 1112 0v1h2a1 1 0 011 1v12a1 1 0 01-1 1H4a1 1 0 01-1-1V9a1 1 0 011-1h2zm13 2H5v10h14V10zm-8 5.732a2 2 0 112 0V18h-2v-2.268zM8 8h8V7a4 4 0 10-8 0v1z" fill="#000091"/></svg><svg viewBox="0 0 24 24" id="button-comment" xmlns="http://www.w3.org/2000/svg"><path d="M5.455 15L1 18.5V3a1 1 0 011-1h15a1 1 0 011 1v12H5.455zm-.692-2H16V4H3v10.385L4.763 13zM8 17h10.237L20 18.385V8h1a1 1 0 011 1v13.5L17.545 19H9a1 1 0 01-1-1v-1z" fill="#fff"/></svg><svg viewBox="0 0 24 24" id="button-delete" xmlns="http://www.w3.org/2000/svg"><path d="M12 22C6.477 22 2 17.523 2 12S6.477 2 12 2s10 4.477 10 10-4.477 10-10 10zm0-2a8 8 0 100-16 8 8 0 000 16zm0-9.414l2.828-2.829 1.415 1.415L13.414 12l2.829 2.828-1.415 1.415L12 13.414l-2.828 2.829-1.415-1.415L10.586 12 7.757 9.172l1.415-1.415L12 10.586z" fill="#000091"/></svg><svg viewBox="0 0 24 24" id="button-edit" xmlns="http://www.w3.org/2000/svg"><path d="M15.728 9.686l-1.414-1.414L5 17.586V19h1.414l9.314-9.314zm1.414-1.414l1.414-1.414-1.414-1.414-1.414 1.414 1.414 1.414zM7.242 21H3v-4.243L16.435 3.322a1 1 0 011.414 0l2.829 2.829a1 1 0 010 1.414L7.243 21z" fill="#000091"/></svg><svg viewBox="0 0 24 24" id="button-flag" xmlns="http://www.w3.org/2000/svg"><path d="M12 22C6.477 22 2 17.523 2 12S6.477 2 12 2s10 4.477 10 10-4.477 10-10 10zm0-2a8 8 0 100-16 8 8 0 000 16zm-1-5h2v2h-2v-2zm0-8h2v6h-2V7z" fill="#000091"/></svg><svg viewBox="0 0 24 24" id="button-follow" xmlns="http://www.w3.org/2000/svg"><path d="M13.06 8.11l1.415 1.415a7 7 0 010 9.9l-.354.353a7 7 0 01-9.9-9.9l1.415 1.415a5 5 0 107.071 7.071l.354-.354a5 5 0 000-7.07l-1.415-1.415 1.415-1.414zm6.718 6.011l-1.414-1.414a5 5 0 10-7.071-7.071l-.354.354a5 5 0 000 7.07l1.415 1.415-1.415 1.414-1.414-1.414a7 7 0 010-9.9l.354-.353a7 7 0 019.9 9.9z" fill="#000091"/></svg><svg viewBox="0 0 24 24" id="button-hide" xmlns="http://www.w3.org/2000/svg"><path d="M17.882 19.297A10.949 10.949 0 0112 21c-5.392 0-9.878-3.88-10.819-9a10.982 10.982 0 013.34-6.066L1.392 2.808l1.415-1.415 19.799 19.8-1.415 1.414-3.31-3.31zM5.935 7.35A8.965 8.965 0 003.223 12a9.005 9.005 0 0013.201 5.838l-2.028-2.028A4.5 4.5 0 018.19 9.604L5.935 7.35zm6.979 6.978l-3.242-3.242a2.5 2.5 0 003.241 3.241zm7.893 2.264l-1.431-1.43A8.935 8.935 0 0020.777 12 9.005 9.005 0 009.552 5.338L7.974 3.76C9.221 3.27 10.58 3 12 3c5.392 0 9.878 3.88 10.819 9a10.947 10.947 0 01-2.012 4.592zm-9.084-9.084a4.5 4.5 0 014.769 4.769l-4.77-4.769z" fill="#000091"/></svg><svg viewBox="0 0 24 24" id="button-reopen" xmlns="http://www.w3.org/2000/svg"><path d="M7 10h13a1 1 0 011 1v10a1 1 0 01-1 1H4a1 1 0 01-1-1V11a1 1 0 011-1h1V9a7 7 0 0113.262-3.131l-1.789.894A5 5 0 007 9v1zm-2 2v8h14v-8H5zm5 3h4v2h-4v-2z" fill="#000091"/></svg><svg viewBox="0 0 24 24" id="button-reshow" xmlns="http://www.w3.org/2000/svg"><path d="M12 3c5.392 0 9.878 3.88 10.819 9-.94 5.12-5.427 9-10.819 9-5.392 0-9.878-3.88-10.819-9C2.121 6.88 6.608 3 12 3zm0 16a9.005 9.005 0 008.777-7 9.005 9.005 0 00-17.554 0A9.005 9.005 0 0012 19zm0-2.5a4.5 4.5 0 110-9 4.5 4.5 0 010 9zm0-2a2.5 2.5 0 100-5 2.5 2.5 0 000 5z" fill="#fff"/></svg><svg viewBox="0 0 24 24" id="button-retagcat" xmlns="http://www.w3.org/2000/svg"><path d="M10.9 2.1l9.899 1.415 1.414 9.9-9.192 9.192a1 1 0 01-1.414 0l-9.9-9.9a1 1 0 010-1.414L10.9 2.1zm.707 2.122L3.828 12l8.486 8.485 7.778-7.778-1.06-7.425-7.425-1.06zm2.12 6.364a2 2 0 112.83-2.829 2 2 0 01-2.83 2.829z" fill="#000091"/></svg><svg viewBox="0 0 24 24" id="button-select" xmlns="http://www.w3.org/2000/svg"><path d="M4 2h16a1 1 0 011 1v19.276a.5.5 0 01-.704.457L12 19.03l-8.296 3.702A.5.5 0 013 22.276V3a1 1 0 011-1zm15 17.965V4H5v15.965l7-3.124 7 3.124zM12 13.5l-2.939 1.545.561-3.272-2.377-2.318 3.286-.478L12 6l1.47 2.977 3.285.478-2.377 2.318.56 3.272L12 13.5z" fill="#000091"/></svg><svg viewBox="0 0 24 24" id="button-unflag" xmlns="http://www.w3.org/2000/svg"><path d="M12 22C6.477 22 2 17.523 2 12S6.477 2 12 2s10 4.477 10 10-4.477 10-10 10zm0-2a8 8 0 100-16 8 8 0 000 16zm-.997-4L6.76 11.757l1.414-1.414 2.829 2.829 5.656-5.657 1.415 1.414L11.003 16z" fill="#000091"/></svg><svg viewBox="0 0 24 24" id="button-unselect" xmlns="http://www.w3.org/2000/svg"><path d="M5 2h14a1 1 0 011 1v19.143a.5.5 0 01-.766.424L12 18.03l-7.234 4.536A.5.5 0 014 22.143V3a1 1 0 011-1zm13 2H6v15.432l6-3.761 6 3.761V4zM8 9h8v2H8V9z" fill="#000091"/></svg><svg viewBox="0 0 24 24" id="checkbox" xmlns="http://www.w3.org/2000/svg"><path d="M10 15.172l9.192-9.193 1.415 1.414L10 18l-6.364-6.364 1.414-1.414z" fill="#f8f8f8"/></svg><svg viewBox="0 0 24 24" id="close-icon" xmlns="http://www.w3.org/2000/svg"><path d="M6 8V7a6 6 0 1112 0v1h2a1 1 0 011 1v12a1 1 0 01-1 1H4a1 1 0 01-1-1V9a1 1 0 011-1h2zm13 2H5v10h14V10zm-8 5.732a2 2 0 112 0V18h-2v-2.268zM8 8h8V7a4 4 0 10-8 0v1z" fill="#1c1c1c"/></svg><svg viewBox="0 0 24 24" id="error" xmlns="http://www.w3.org/2000/svg"><path d="M12 22C6.477 22 2 17.523 2 12S6.477 2 12 2s10 4.477 10 10-4.477 10-10 10zm0-2a8 8 0 100-16 8 8 0 000 16zm-1-5h2v2h-2v-2zm0-8h2v6h-2V7z" fill="#b60000"/></svg><svg viewBox="0 0 24 24" id="logged-in" xmlns="http://www.w3.org/2000/svg"><path d="M4 22a8 8 0 1116 0h-2a6 6 0 10-12 0H4zm8-9c-3.315 0-6-2.685-6-6s2.685-6 6-6 6 2.685 6 6-2.685 6-6 6zm0-2c2.21 0 4-1.79 4-4s-1.79-4-4-4-4 1.79-4 4 1.79 4 4 4z" fill="#0053B3"/></svg><svg viewBox="0 0 24 24" id="logged-in-sm" xmlns="http://www.w3.org/2000/svg"><path d="M4 22a8 8 0 1116 0h-2a6 6 0 10-12 0H4zm8-9c-3.315 0-6-2.685-6-6s2.685-6 6-6 6 2.685 6 6-2.685 6-6 6zm0-2c2.21 0 4-1.79 4-4s-1.79-4-4-4-4 1.79-4 4 1.79 4 4 4z"/></svg><svg viewBox="0 0 24 24" id="logged-out" xmlns="http://www.w3.org/2000/svg"><path d="M4 15h2v5h12V4H6v5H4V3a1 1 0 011-1h14a1 1 0 011 1v18a1 1 0 01-1 1H5a1 1 0 01-1-1v-6zm6-4V8l5 4-5 4v-3H2v-2h8z" fill="#0053B3"/></svg><svg viewBox="0 0 24 24" id="logged-out-sm" xmlns="http://www.w3.org/2000/svg"><path d="M4 15h2v5h12V4H6v5H4V3a1 1 0 011-1h14a1 1 0 011 1v18a1 1 0 01-1 1H5a1 1 0 01-1-1v-6zm6-4V8l5 4-5 4v-3H2v-2h8z"/></svg><svg viewBox="0 0 24 24" id="menu-toggle" xmlns="http://www.w3.org/2000/svg"><path d="M3 4h18v2H3V4zm0 7h18v2H3v-2zm0 7h18v2H3v-2z"/></svg><svg viewBox="0 0 24 24" id="message-content" xmlns="http://www.w3.org/2000/svg"><path d="M4.583 17.321C3.553 16.227 3 15 3 13.011c0-3.5 2.457-6.637 6.03-8.188l.893 1.378c-3.335 1.804-3.987 4.145-4.247 5.621.537-.278 1.24-.375 1.929-.311 1.804.167 3.226 1.648 3.226 3.489a3.5 3.5 0 01-3.5 3.5 3.871 3.871 0 01-2.748-1.179zm10 0C13.553 16.227 13 15 13 13.011c0-3.5 2.457-6.637 6.03-8.188l.893 1.378c-3.335 1.804-3.987 4.145-4.247 5.621.537-.278 1.24-.375 1.929-.311 1.804.167 3.226 1.648 3.226 3.489a3.5 3.5 0 01-3.5 3.5 3.871 3.871 0 01-2.748-1.179z" fill="#383838"/></svg><svg viewBox="0 0 24 24" id="nav-logged-in-points" xmlns="http://www.w3.org/2000/svg"><path d="M2 3.993A1 1 0 012.992 3h18.016c.548 0 .992.445.992.993v16.014a1 1 0 01-.992.993H2.992A.993.993 0 012 20.007V3.993zM4 5v14h16V5H4zm2 2h6v6H6V7zm2 2v2h2V9H8zm-2 6h12v2H6v-2zm8-8h4v2h-4V7zm0 4h4v2h-4v-2z"/></svg><svg viewBox="0 0 24 24" id="nav-user-logout" xmlns="http://www.w3.org/2000/svg"><path d="M4 18h2v2h12V4H6v2H4V3a1 1 0 011-1h14a1 1 0 011 1v18a1 1 0 01-1 1H5a1 1 0 01-1-1v-3zm2-7h7v2H6v3l-5-4 5-4v3z"/></svg><svg viewBox="0 0 24 24" id="nav-user-updates" xmlns="http://www.w3.org/2000/svg"><path d="M22 20H2v-2h1v-6.969C3 6.043 7.03 2 12 2s9 4.043 9 9.031V18h1v2zM5 18h14v-6.969C19 7.148 15.866 4 12 4s-7 3.148-7 7.031V18zm4.5 3h5a2.5 2.5 0 11-5 0z"/></svg><svg viewBox="0 0 24 24" id="ok" xmlns="http://www.w3.org/2000/svg"><path d="M12 22C6.477 22 2 17.523 2 12S6.477 2 12 2s10 4.477 10 10-4.477 10-10 10zm0-2a8 8 0 100-16 8 8 0 000 16zm-.997-4L6.76 11.757l1.414-1.414 2.829 2.829 5.656-5.657 1.415 1.414L11.003 16z" fill="#0d6635"/></svg><svg viewBox="0 0 24 24" id="page-next" xmlns="http://www.w3.org/2000/svg"><path fill="none" d="M0 0h24v24H0z"/><path d="M13.172 12l-4.95-4.95 1.414-1.414L16 12l-6.364 6.364-1.414-1.414z"/></svg><svg viewBox="0 0 24 24" id="page-prev" xmlns="http://www.w3.org/2000/svg"><path fill="none" d="M0 0h24v24H0z"/><path d="M10.828 12l4.95 4.95-1.414 1.414L8 12l6.364-6.364 1.414 1.414z"/></svg><svg viewBox="0 0 24 24" id="qa-favorite" xmlns="http://www.w3.org/2000/svg"><path d="M12.001 4.529a5.998 5.998 0 018.242.228 6 6 0 01.236 8.236l-8.48 8.492-8.478-8.492a6 6 0 018.48-8.464zm6.826 1.641a3.998 3.998 0 00-5.49-.153l-1.335 1.198-1.336-1.197a3.999 3.999 0 00-5.494.154 4 4 0 00-.192 5.451L12 18.654l7.02-7.03a4 4 0 00-.193-5.454z"/></svg><svg viewBox="0 0 24 24" id="qa-unfavorite" xmlns="http://www.w3.org/2000/svg"><path d="M2.808 1.393l18.384 18.385-1.414 1.414-3.747-3.747L12 21.485l-8.48-8.492a6 6 0 01.034-8.023L1.393 2.808l1.415-1.415zm2.172 10.23L12 18.654l2.617-2.623-9.645-9.645a4.001 4.001 0 00.008 5.237zm15.263-6.866a6 6 0 01.236 8.236l-1.635 1.636-1.414-1.414 1.59-1.592a3.999 3.999 0 00-.193-5.453 3.998 3.998 0 00-5.49-.153l-1.335 1.198-1.336-1.197a3.953 3.953 0 00-1.155-.723l-2.25-2.25a5.99 5.99 0 014.74 1.484 5.998 5.998 0 018.242.228z"/></svg><svg viewBox="0 0 24 24" id="search-button" xmlns="http://www.w3.org/2000/svg"><path d="M18.031 16.617l4.283 4.282-1.415 1.415-4.282-4.283A8.96 8.96 0 0111 20c-4.968 0-9-4.032-9-9s4.032-9 9-9 9 4.032 9 9a8.96 8.96 0 01-1.969 5.617zm-2.006-.742A6.977 6.977 0 0018 11c0-3.868-3.133-7-7-7-3.868 0-7 3.132-7 7 0 3.867 3.132 7 7 7a6.977 6.977 0 004.875-1.975l.15-.15z" fill="#fff"/></svg><svg viewBox="0 0 24 24" id="search-toggle" xmlns="http://www.w3.org/2000/svg"><path d="M18.031 16.617l4.283 4.282-1.415 1.415-4.282-4.283A8.96 8.96 0 0111 20c-4.968 0-9-4.032-9-9s4.032-9 9-9 9 4.032 9 9a8.96 8.96 0 01-1.969 5.617zm-2.006-.742A6.977 6.977 0 0018 11c0-3.868-3.133-7-7-7-3.868 0-7 3.132-7 7 0 3.867 3.132 7 7 7a6.977 6.977 0 004.875-1.975l.15-.15z"/></svg><svg viewBox="0 0 24 24" id="title-rss" xmlns="http://www.w3.org/2000/svg"><path fill="none" d="M0 0h24v24H0z"/><path d="M3 3c9.941 0 18 8.059 18 18h-3c0-8.284-6.716-15-15-15V3zm0 7c6.075 0 11 4.925 11 11h-3a8 8 0 00-8-8v-3zm0 7a4 4 0 014 4H3v-4z"/></svg><svg viewBox="0 0 24 24" id="vote-down" xmlns="http://www.w3.org/2000/svg"><path fill="none" d="M0 0h24v24H0z"/><path d="M9.4 16H3a2 2 0 01-2-2v-2.104a2 2 0 01.15-.762L4.246 3.62A1 1 0 015.17 3H22a1 1 0 011 1v10a1 1 0 01-1 1h-3.482a1 1 0 00-.817.423l-5.453 7.726a.5.5 0 01-.632.159L9.802 22.4a2.5 2.5 0 01-1.305-2.853L9.4 16zm7.6-2.588V5H5.84L3 11.896V14h6.4a2 2 0 011.938 2.493l-.903 3.548a.5.5 0 00.261.571l.661.33 4.71-6.672c.25-.354.57-.644.933-.858zM19 13h2V5h-2v8z"/></svg><svg viewBox="0 0 24 24" id="vote-down-disabled" xmlns="http://www.w3.org/2000/svg"><path d="M9.4 16H3a2 2 0 01-2-2v-2.104a2 2 0 01.15-.762L4.246 3.62A1 1 0 015.17 3H22a1 1 0 011 1v10a1 1 0 01-1 1h-3.482a1 1 0 00-.817.423l-5.453 7.726a.5.5 0 01-.632.159L9.802 22.4a2.5 2.5 0 01-1.305-2.853L9.4 16zm7.6-2.588V5H5.84L3 11.896V14h6.4a2 2 0 011.938 2.493l-.903 3.548a.5.5 0 00.261.571l.661.33 4.71-6.672c.25-.354.57-.644.933-.858zM19 13h2V5h-2v8z" fill="#a9a9a9"/></svg><svg viewBox="0 0 24 24" id="vote-up" xmlns="http://www.w3.org/2000/svg"><path fill="none" d="M0 0h24v24H0z"/><path d="M14.6 8H21a2 2 0 012 2v2.104a2 2 0 01-.15.762l-3.095 7.515a1 1 0 01-.925.619H2a1 1 0 01-1-1V10a1 1 0 011-1h3.482a1 1 0 00.817-.423L11.752.85a.5.5 0 01.632-.159l1.814.907a2.5 2.5 0 011.305 2.853L14.6 8zM7 10.588V19h11.16L21 12.104V10h-6.4a2 2 0 01-1.938-2.493l.903-3.548a.5.5 0 00-.261-.571l-.661-.33-4.71 6.672c-.25.354-.57.644-.933.858zM5 11H3v8h2v-8z"/></svg><svg viewBox="0 0 24 24" id="vote-up-disabled" xmlns="http://www.w3.org/2000/svg"><path d="M14.6 8H21a2 2 0 012 2v2.104a2 2 0 01-.15.762l-3.095 7.515a1 1 0 01-.925.619H2a1 1 0 01-1-1V10a1 1 0 011-1h3.482a1 1 0 00.817-.423L11.752.85a.5.5 0 01.632-.159l1.814.907a2.5 2.5 0 011.305 2.853L14.6 8zM7 10.588V19h11.16L21 12.104V10h-6.4a2 2 0 01-1.938-2.493l.903-3.548a.5.5 0 00-.261-.571l-.661-.33-4.71 6.672c-.25.354-.57.644-.933.858zM5 11H3v8h2v-8z" fill="#a9a9a9"/></svg><svg viewBox="0 0 24 24" id="voted" xmlns="http://www.w3.org/2000/svg"><path d="M12 22C6.477 22 2 17.523 2 12S6.477 2 12 2s10 4.477 10 10-4.477 10-10 10zm0-2a8 8 0 100-16 8 8 0 000 16zm0-9.414l2.828-2.829 1.415 1.415L13.414 12l2.829 2.828-1.415 1.415L12 13.414l-2.828 2.829-1.415-1.415L10.586 12 7.757 9.172l1.415-1.415L12 10.586z"/></svg></svg>